<?xml version="1.0" encoding="UTF-8"?>
<svg width="24px" height="24px" viewBox="0 0 24 24" version="1.1" xmlns="http://www.w3.org/2000/svg" xmlns:xlink="http://www.w3.org/1999/xlink">
    <!-- Generator: Sketch 52.5 (67469) - http://www.bohemiancoding.com/sketch -->
    <title>media icon/github</title>
    <desc>Created with Sketch.</desc>
    <g id="media-icon/github" stroke="none" stroke-width="1" fill="none" fill-rule="evenodd">
        <path d="M11.9992812,0.859375 C5.649125,0.859375 0.5,5.97320257 0.5,12.2828505 C0.5,17.3288554 3.79475,21.6102492 8.36528125,23.1209095 C8.94028125,23.2258561 9.15015625,22.8731783 9.15015625,22.5704751 C9.15015625,22.2991846 9.14009375,21.5809784 9.13434375,20.6278917 C5.9351875,21.3182549 5.26028125,19.0965278 5.26028125,19.0965278 C4.73775,17.7771988 3.98378125,17.4259489 3.98378125,17.4259489 C2.9394375,16.7170238 4.06284375,16.7313022 4.06284375,16.7313022 C5.2164375,16.8119755 5.82378125,17.9085606 5.82378125,17.9085606 C6.85015625,19.6541013 8.5155,19.150072 9.171,18.8573637 C9.27521875,18.1191677 9.57278125,17.6158523 9.90125,17.3302833 C7.34753125,17.0418585 4.663,16.0623567 4.663,11.6852973 C4.663,10.4380745 5.11078125,9.41859303 5.84678125,8.61971364 C5.7281875,8.33057499 5.33359375,7.16973685 5.95890625,5.59696536 C5.95890625,5.59696536 6.92490625,5.28997865 9.12140625,6.76779842 C10.03925,6.5143559 11.0225,6.3879916 12.0007188,6.38299414 C12.9775,6.3879916 13.9614687,6.5143559 14.8800313,6.76779842 C17.0750938,5.28997865 18.0389375,5.59696536 18.0389375,5.59696536 C18.6664063,7.16973685 18.2718125,8.33057499 18.1532188,8.61971364 C18.8906562,9.41859303 19.3355625,10.4380745 19.3355625,11.6852973 C19.3355625,16.0730656 16.6467188,17.0390028 14.0850937,17.3217162 C14.4976562,17.674394 14.8656562,18.3711824 14.8656562,19.4370689 C14.8656562,20.9641493 14.8512812,22.1956658 14.8512812,22.5704751 C14.8512812,22.876034 15.0582812,23.2315675 15.6419063,23.1194816 C20.208125,21.6059657 23.5,17.3274276 23.5,12.2828505 C23.5,5.97320257 18.350875,0.859375 11.9992812,0.859375" id="icon-github" fill="#FFFFFF"></path>
    </g>
</svg>