<?xml version="1.0" encoding="UTF-8"?>
<svg width="24px" height="24px" viewBox="0 0 24 24" version="1.1" xmlns="http://www.w3.org/2000/svg" xmlns:xlink="http://www.w3.org/1999/xlink">
    <!-- Generator: Sketch 52.5 (67469) - http://www.bohemiancoding.com/sketch -->
    <title>media icon/homepage</title>
    <desc>Created with Sketch.</desc>
    <g id="media-icon/homepage" stroke="none" stroke-width="1" fill="none" fill-rule="evenodd">
        <path d="M13.8990482,23.0015788 L13.8990482,16.5453156 C13.8990482,16.1482867 13.615462,15.8264312 13.2656407,15.8264312 L10.7320107,15.8264312 C10.3821894,15.8264312 10.0986032,16.1482867 10.0986032,16.5453156 L10.0986032,23.0015788 L4.77798015,23.0015788 C4.21826606,23.0015788 3.76452814,22.48661 3.76452814,21.8513637 L3.76452814,13.7286952 L12.0442358,6.53985091 L20.2331232,13.7286952 L20.2331232,21.8513637 C20.2331232,22.48661 19.7793853,23.0015788 19.2196712,23.0015788 L13.8990482,23.0015788 Z M16.4326782,4.55211597 L16.4326782,1.72754617 C16.4326782,1.33051727 16.7162644,1.00866174 17.0660857,1.00866174 L19.5997157,1.00866174 C19.949537,1.00866174 20.2331232,1.33051727 20.2331232,1.72754617 L20.2331232,7.88844314 L23.7049186,10.9362561 C24.0369651,11.2277523 24.0979346,11.7695584 23.8410978,12.1464137 C23.8353126,12.1549024 23.8293882,12.1632678 23.8233279,12.1715057 L22.7494173,13.6312782 C22.4874431,13.987381 22.0242375,14.0445758 21.70092,13.7607425 L12.0669448,5.30328739 L2.30777854,13.7766694 C1.98494962,14.0569652 1.52495288,13.9994036 1.26368387,13.6460169 L0.177844743,12.1773347 C-0.0919882169,11.8123645 -0.0500434928,11.2682361 0.271530906,10.9619898 C0.280283061,10.9536548 0.289199686,10.9455448 0.298273985,10.9376661 L10.9059736,1.72754617 C11.5904153,1.13328064 12.5415244,1.13615756 13.2231654,1.73455525 L16.4326782,4.55211597 Z" id="Shape" fill="#FFFFFF"></path>
    </g>
</svg>