<?xml version="1.0" encoding="UTF-8"?>
<svg width="20px" height="20px" viewBox="0 0 20 20" version="1.1" xmlns="http://www.w3.org/2000/svg" xmlns:xlink="http://www.w3.org/1999/xlink">
    <!-- Generator: Sketch 57.1 (83088) - https://sketch.com -->
    <title>icon/webpage</title>
    <desc>Created with Sketch.</desc>
    <g id="icon/webpage" stroke="none" stroke-width="1" fill="none" fill-rule="evenodd">
        <path d="M13.3338408,9.03856385 C14.5835185,10.2882416 14.5835185,12.3143695 13.3338408,13.5640473 L9.26877031,17.6291177 C8.01909258,18.8787955 5.99296465,18.8787955 4.74328691,17.6291177 L3.1893122,16.075143 C1.93963447,14.8254653 1.93963447,12.7993374 3.1893122,11.5496596 L4.93850256,9.80149266 C5.02441246,10.4812713 5.32836985,11.1387535 5.85037473,11.6607584 L6.02244308,11.8329635 L4.84799876,13.0069874 C4.45747447,13.3975117 4.45747447,14.0306767 4.84799876,14.421201 L6.39722894,15.9704312 C6.75985864,16.3330609 7.33170403,16.358963 7.72422169,16.0481375 L7.8114425,15.9704312 L11.6751542,12.1067194 C12.0377839,11.7440897 12.0636861,11.1722443 11.7528606,10.7797267 L11.6751542,10.6925059 L9.4707556,8.48810724 L11.1270699,6.83179295 L13.3338408,9.03856385 Z M16.8106878,3.92485697 C18.0603655,5.17453471 18.0603655,7.20066264 16.8106878,8.45034037 L15.0614974,10.1985073 C14.9755875,9.51872868 14.6716302,8.86124645 14.1496253,8.33924157 L13.9775569,8.16703655 L15.1520012,6.99301256 C15.5425255,6.60248827 15.5425255,5.96932329 15.1520012,5.578799 L13.6027711,4.02956882 C13.2401414,3.66693912 12.668296,3.641037 12.2757783,3.95186246 L12.1885575,4.02956882 L8.32484577,7.89328056 C7.96221607,8.25591026 7.93631395,8.82775565 8.2471394,9.22027331 L8.32484577,9.30749412 L10.5292444,11.5118928 L8.87293011,13.168207 L6.66615921,10.9614361 C5.41648147,9.71175841 5.41648147,7.68563048 6.66615921,6.43595275 L10.7312297,2.37088226 C11.9809074,1.12120453 14.0070354,1.12120453 15.2567131,2.37088226 L16.8106878,3.92485697 Z" id="Shape" fill="#8B93A7"></path>
    </g>
</svg>