<?xml version="1.0" encoding="UTF-8"?>
<svg width="24px" height="24px" viewBox="0 0 24 24" version="1.1" xmlns="http://www.w3.org/2000/svg" xmlns:xlink="http://www.w3.org/1999/xlink">
    <!-- Generator: Sketch 52.5 (67469) - http://www.bohemiancoding.com/sketch -->
    <title>media icon/telegram</title>
    <desc>Created with Sketch.</desc>
    <g id="media-icon/telegram" stroke="none" stroke-width="1" fill="none" fill-rule="evenodd">
        <path d="M12,23.5 C5.64872538,23.5 0.5,18.3512746 0.5,12 C0.5,5.64872538 5.64872538,0.5 12,0.5 C18.3512746,0.5 23.5,5.64872538 23.5,12 C23.5,18.3512746 18.3512746,23.5 12,23.5 Z M4.98078536,11.5460903 C4.85849506,11.5946583 4.76027893,11.6894742 4.7074343,11.8099782 C4.5965326,12.0628723 4.71164019,12.3577871 4.96453428,12.4686888 L7.74217892,13.6867698 C7.8836537,13.7488108 7.98850675,13.872763 8.02623374,14.0225658 L8.82699332,17.2021469 C8.84842521,17.2872467 8.89187742,17.3652068 8.95298366,17.4281935 C9.14526482,17.6263918 9.46181096,17.6311886 9.66000926,17.4389074 L10.9079415,16.2282318 C11.0806418,16.0606873 11.3481854,16.039912 11.5446798,16.1787878 L14.0871101,17.9756924 C14.1431066,18.0152688 14.2066452,18.0429045 14.273776,18.0568814 C14.544121,18.1131684 14.8089085,17.9396401 14.8651954,17.6692952 L16.9566352,7.624161 C16.9765935,7.52830138 16.9679669,7.42869135 16.9318255,7.33769022 C16.829899,7.08104727 16.5392211,6.95562478 16.2825781,7.05755126 L4.98078536,11.5460903 Z" id="Shape" fill="#FFFFFF"></path>
    </g>
</svg>