<?xml version="1.0" encoding="UTF-8"?>
<svg width="24px" height="24px" viewBox="0 0 24 24" version="1.1" xmlns="http://www.w3.org/2000/svg" xmlns:xlink="http://www.w3.org/1999/xlink">
    <!-- Generator: Sketch 52.5 (67469) - http://www.bohemiancoding.com/sketch -->
    <title>media icon/twitter</title>
    <desc>Created with Sketch.</desc>
    <g id="media-icon/twitter" stroke="none" stroke-width="1" fill="none" fill-rule="evenodd">
        <path d="M24,4.55805614 C23.11725,4.94948087 22.16775,5.21417997 21.17175,5.33340704 C22.18875,4.72377427 22.9695,3.75945972 23.337,2.60993078 C22.386,3.17382234 21.3315,3.58324361 20.21025,3.80445107 C19.31175,2.84763507 18.03225,2.25 16.61625,2.25 C13.89675,2.25 11.6925,4.45382619 11.6925,7.17280331 C11.6925,7.55822919 11.736,7.93390694 11.82,8.29458758 C7.72725,8.08912709 4.0995,6.12900404 1.671,3.15057681 C1.24725,3.87793694 1.00425,4.72377427 1.00425,5.6258508 C1.00425,7.33327245 1.8735,8.8404826 3.19425,9.72306287 C2.38725,9.69756778 1.62825,9.47636032 0.9645,9.10743126 C0.96375,9.12842723 0.96375,9.14867333 0.96375,9.16966929 C0.96375,11.5549606 2.661,13.544328 4.914,13.9964911 C4.50075,14.1089694 4.06575,14.1689579 3.6165,14.1689579 C3.29925,14.1689579 2.991,14.1382138 2.69025,14.0812248 C3.3165,16.0368487 5.13525,17.460075 7.29,17.4998173 C5.60475,18.8203134 3.4815,19.6069121 1.1745,19.6069121 C0.777,19.6069121 0.3855,19.5836666 0,19.5386753 C2.17875,20.9349067 4.767,21.75 7.548,21.75 C16.605,21.75 21.55725,14.2484426 21.55725,7.74344357 C21.55725,7.52973467 21.55275,7.31752548 21.543,7.10606614 C22.50525,6.41244953 23.34,5.54561623 24,4.55805614" id="icon-twitter" fill="#FFFFFF"></path>
    </g>
</svg>