<?xml version="1.0" encoding="UTF-8"?>
<svg viewBox="0 0 154 38" version="1.1" xmlns="http://www.w3.org/2000/svg" xmlns:xlink="http://www.w3.org/1999/xlink">
    <!-- Generator: Sketch 55.2 (78181) - https://sketchapp.com -->
    <title>dapp pub logo/full white</title>
    <desc>Created with Sketch.</desc>
    <g id="main" stroke="none" stroke-width="1" fill="none" fill-rule="evenodd">
        <g id="home" transform="translate(-240.000000, -98.000000)">
            <g id="header" transform="translate(0.000000, 78.000000)">
                <g id="logo/debank" transform="translate(240.000000, 20.000000)">
                    <path d="M31.9955476,26.3835879 C31.9955476,32.5003524 27.0369302,37.4589698 20.9201657,37.4589698 L4.92050845e-13,37.4589698 L4.92050845e-13,30.0753819 L20.9201657,30.0753819 C22.9590872,30.0753819 24.6119597,28.4225094 24.6119597,26.3835879 C24.6119597,24.3446664 22.9590872,22.691794 20.9201657,22.691794 L13.5365778,22.691794 L13.5365778,15.308206 L20.9201657,15.308206 C22.9590872,15.308206 24.6119597,13.6553336 24.6119597,11.6164121 C24.6119597,9.5774906 22.9590872,7.92461815 20.9201657,7.92461815 L4.92050845e-13,7.92461815 L4.92050845e-13,0.541030242 L20.9201657,0.541030242 C27.0369302,0.541030242 31.9955476,5.4996476 31.9955476,11.6164121 C31.9955476,14.4530184 30.9291597,17.0405564 29.1754102,19 C30.9291597,20.9594436 31.9955476,23.5469816 31.9955476,26.3835879 Z" id="Path" fill="#FFFFFF" fill-rule="evenodd" opacity="0.699999988"></path>
                    <path d="M1.77635684e-15,30.0753819 L17.9682627,30.0753819 C14.1515612,34.5588688 8.07491401,37.4589698 1.23059798,37.4589698 C0.817492648,37.4589698 0.407183944,37.4484046 1.77635684e-15,37.4275639 L1.77635684e-15,30.0753819 L1.77635684e-15,30.0753819 Z M21.7322846,22.691794 L14.7671758,22.691794 L14.7671758,15.308206 L21.7322846,15.308206 C22.0067064,16.5010614 22.1507637,17.7356867 22.1507637,19 C22.1507637,20.2643133 22.0067064,21.4989386 21.7322846,22.691794 Z M17.9682627,7.92461815 L1.13864473e-12,7.92461815 L1.13864473e-12,0.572436091 C0.407183944,0.551595366 0.817492648,0.541030242 1.23059798,0.541030242 C8.07491401,0.541030242 14.1515612,3.44113116 17.9682627,7.92461815 L17.9682627,7.92461815 Z" id="Shape" fill="#000000" fill-rule="nonzero" opacity="0.100000001"></path>
                    <path d="M4.90274488e-13,0.541030242 C10.1946075,0.541030242 18.4589698,8.80539251 18.4589698,19 C18.4589698,29.1946075 10.1946075,37.4589698 4.90274488e-13,37.4589698 L4.90274488e-13,30.0753819 C6.1167645,30.0753819 11.0753819,25.1167645 11.0753819,19 C11.0753819,12.8832355 6.1167645,7.92461815 4.90274488e-13,7.92461815 L4.90274488e-13,0.541030242 Z" id="Path" fill="#FFFFFF" fill-rule="nonzero"></path>
                    <path d="M67.6815181,19.3921021 C67.6815181,21.1285631 67.3594375,22.6269383 66.7152665,23.8872729 C66.0710955,25.1476075 65.2215494,26.183867 64.1666027,26.9960826 C63.111656,27.8082982 61.9213578,28.4057812 60.5956726,28.7885495 C59.2699874,29.1713177 57.9256507,29.362699 56.5626222,29.362699 L49.1686964,29.362699 L49.1686964,9.53353444 L56.3385638,9.53353444 C57.7389356,9.53353444 59.1206149,9.69690869 60.4836434,10.0236621 C61.8466719,10.3504155 63.0603092,10.8918844 64.1245917,11.6480852 C65.1888742,12.4042859 66.047756,13.4172063 66.7012628,14.6868766 C67.3547696,15.956547 67.6815181,17.5249398 67.6815181,19.3921021 Z M62.6962197,19.3921021 C62.6962197,18.2718047 62.5141741,17.3429054 62.1500775,16.6053763 C61.7859808,15.8678472 61.3005259,15.2796999 60.6936981,14.8409168 C60.0868704,14.4021336 59.3960307,14.0893886 58.6211583,13.9026724 C57.846286,13.7159562 57.0480861,13.6225994 56.2265347,13.6225994 L53.8459146,13.6225994 L53.8459146,25.2176194 L56.1145055,25.2176194 C56.9734001,25.2176194 57.7996071,25.1195948 58.593151,24.9235428 C59.386695,24.7274908 60.0868704,24.4054101 60.6936981,23.9572911 C61.3005259,23.5091722 61.7859808,22.9116892 62.1500775,22.1648243 C62.5141741,21.4179594 62.6962197,20.4937279 62.6962197,19.3921021 Z M80.2007788,20.7924669 C80.2007788,20.0642736 79.9720549,19.4387836 79.5146001,18.9159781 C79.0571453,18.3931727 78.3709735,18.1317739 77.4560639,18.1317739 C77.007945,18.1317739 76.5971754,18.2017914 76.223743,18.3418286 C75.8503105,18.4818658 75.523562,18.673247 75.2434877,18.9159781 C74.9634133,19.1587092 74.7393572,19.4434472 74.5713126,19.7702006 C74.403268,20.096954 74.3099113,20.437706 74.2912397,20.7924669 L80.2007788,20.7924669 Z M84.4298803,22.5569264 L84.4298803,23.1170723 C84.4298803,23.3037885 84.4205446,23.4811663 84.401873,23.6492109 L74.2912397,23.6492109 C74.3285829,24.041315 74.4452788,24.3960705 74.6413308,24.7134881 C74.8373829,25.0309057 75.089446,25.306308 75.3975278,25.5397033 C75.7056096,25.7730986 76.0510294,25.9551442 76.4337977,26.0858455 C76.816566,26.2165469 77.213332,26.2818966 77.6241077,26.2818966 C78.352301,26.2818966 78.9684553,26.1465294 79.4725891,25.8757908 C79.976723,25.6050523 80.3874925,25.2549646 80.7049101,24.8255173 L83.8977417,26.8420425 C83.2442349,27.7942953 82.3806853,28.5271455 81.3070669,29.0406151 C80.2334486,29.5540822 78.9871365,29.8108157 77.5680931,29.8108157 C76.5224822,29.8108157 75.532901,29.6474415 74.5993199,29.320688 C73.6657387,28.9939346 72.8488675,28.5178154 72.1486816,27.892316 C71.4484958,27.2668167 70.8976911,26.4966238 70.4962512,25.5817142 C70.0948113,24.6668047 69.8940944,23.6212095 69.8940944,22.4448972 C69.8940944,21.3059282 70.0901435,20.2743365 70.4822476,19.3500912 C70.8743517,18.4258458 71.406485,17.6416494 72.0786634,16.9974784 C72.7508418,16.3533074 73.5443739,15.853849 74.4592834,15.4990882 C75.374193,15.1443273 76.3637741,14.9669496 77.4280566,14.9669496 C78.4549959,14.9669496 79.3978987,15.1396595 80.2567934,15.4850845 C81.1156881,15.8305096 81.8532061,16.329968 82.4693697,16.9834748 C83.0855332,17.6369816 83.5663203,18.4305137 83.9117453,19.3640948 C84.2571704,20.297676 84.4298803,21.3619425 84.4298803,22.5569264 Z M102.998717,23.5931963 C102.998717,24.6761504 102.783996,25.5863784 102.354549,26.3239075 C101.925101,27.0614366 101.355626,27.6542518 100.646104,28.1023707 C99.9365822,28.5504897 99.1290466,28.8725704 98.2234729,29.0686224 C97.3178991,29.2646744 96.3889998,29.362699 95.4367471,29.362699 L87.53869,29.362699 L87.53869,9.53353444 L95.4367471,9.53353444 C96.2022836,9.53353444 96.98648,9.61288764 97.7893598,9.77159644 C98.5922396,9.93030524 99.320422,10.2010397 99.9739288,10.583808 C100.627436,10.9665763 101.159569,11.484706 101.570345,12.1382128 C101.98112,12.7917196 102.186505,13.6225944 102.186505,14.630862 C102.186505,15.7324878 101.887764,16.6427158 101.290272,17.3615733 C100.69278,18.0804308 99.9085833,18.5985605 98.9376589,18.9159781 L98.9376589,18.9719927 C99.4978076,19.0653508 100.025273,19.2380607 100.520071,19.4901277 C101.014869,19.7421946 101.44431,20.0642752 101.808407,20.4563793 C102.172503,20.8484834 102.461909,21.3059313 102.676633,21.8287368 C102.891356,22.3515422 102.998717,22.9396895 102.998717,23.5931963 Z M97.5653014,15.2750298 C97.5653014,14.6028514 97.3085705,14.1127286 96.7951008,13.8046469 C96.2816312,13.4965651 95.520774,13.3425265 94.5125063,13.3425265 L92.1598936,13.3425265 L92.1598936,17.4315915 L94.7365647,17.4315915 C95.6328026,17.4315915 96.3283101,17.2495459 96.8231081,16.8854493 C97.3179061,16.5213526 97.5653014,15.9845515 97.5653014,15.2750298 Z M98.2094692,23.1450796 C98.2094692,22.3235282 97.9013921,21.7540522 97.2852285,21.4366346 C96.6690649,21.119217 95.8475258,20.9605106 94.8205866,20.9605106 L92.1598936,20.9605106 L92.1598936,25.4976923 L94.8485939,25.4976923 C95.2220263,25.4976923 95.6094567,25.4650175 96.0108966,25.3996668 C96.4123365,25.3343161 96.7764277,25.2176202 97.1031811,25.0495756 C97.4299345,24.881531 97.6960011,24.6434714 97.901389,24.3353896 C98.1067768,24.0273078 98.2094692,23.6305418 98.2094692,23.1450796 Z M114.14562,23.2851161 L113.557467,23.2851161 C113.053333,23.2851161 112.544539,23.3084552 112.031069,23.3551343 C111.517599,23.4018134 111.060152,23.4905022 110.658712,23.6212036 C110.257272,23.751905 109.925855,23.9432862 109.664453,24.1953531 C109.40305,24.4474201 109.272351,24.7788364 109.272351,25.1896121 C109.272351,25.4510148 109.333032,25.6750709 109.454398,25.8617872 C109.575764,26.0485034 109.729802,26.1978741 109.916518,26.3099039 C110.103235,26.4219336 110.317955,26.5012868 110.560686,26.5479659 C110.803417,26.5946449 111.036809,26.6179841 111.260868,26.6179841 C112.19445,26.6179841 112.908629,26.3612532 113.403427,25.8477835 C113.898225,25.3343139 114.14562,24.6388064 114.14562,23.7612401 L114.14562,23.2851161 Z M105.715424,17.3195623 C106.536976,16.5353542 107.493882,15.9472069 108.586172,15.5551028 C109.678462,15.1629987 110.794075,14.9669496 111.933044,14.9669496 C113.109356,14.9669496 114.103605,15.1116525 114.91582,15.4010626 C115.728036,15.6904728 116.386201,16.138585 116.890335,16.7454128 C117.394469,17.3522405 117.763228,18.1177656 117.996623,19.0420109 C118.230018,19.9662563 118.346714,21.0631977 118.346714,22.3328681 L118.346714,29.362699 L114.14562,29.362699 L114.14562,27.8783124 L114.061598,27.8783124 C113.706837,28.4571327 113.170036,28.9052449 112.451179,29.2226625 C111.732321,29.5400801 110.952792,29.6987865 110.112569,29.6987865 C109.552421,29.6987865 108.973609,29.6241012 108.376117,29.4747282 C107.778625,29.3253552 107.232488,29.0826277 106.73769,28.7465385 C106.242892,28.4104493 105.836791,27.9623371 105.519373,27.4021884 C105.201956,26.8420397 105.043249,26.1512 105.043249,25.3296486 C105.043249,24.3213809 105.318651,23.5091775 105.869464,22.8930139 C106.420277,22.2768504 107.129788,21.8007311 107.998019,21.4646419 C108.866249,21.1285527 109.832491,20.9044966 110.896774,20.7924669 C111.961056,20.6804371 112.997316,20.6244231 114.005583,20.6244231 L114.005583,20.4003647 C114.005583,19.7095147 113.762856,19.2007206 113.277394,18.8739672 C112.791931,18.5472138 112.194449,18.3838395 111.484927,18.3838395 C110.83142,18.3838395 110.201262,18.5238746 109.594434,18.8039489 C108.987607,19.0840233 108.469477,19.4201075 108.04003,19.8122115 L105.715424,17.3195623 Z M130.921989,29.362699 L130.921989,21.7447149 C130.921989,21.3526108 130.889314,20.9791839 130.823964,20.6244231 C130.758613,20.2696622 130.651253,19.9569173 130.50188,19.6861787 C130.352507,19.4154402 130.142454,19.2007197 129.871716,19.0420109 C129.600977,18.8833021 129.260225,18.8039489 128.849449,18.8039489 C128.438674,18.8039489 128.07925,18.8833021 127.771169,19.0420109 C127.463087,19.2007197 127.206356,19.420108 127.000968,19.7001824 C126.79558,19.9802567 126.641542,20.3023374 126.538848,20.666434 C126.436154,21.0305307 126.384808,21.4086254 126.384808,21.8007295 L126.384808,29.362699 L121.763604,29.362699 L121.763604,15.4150663 L126.216764,15.4150663 L126.216764,17.3475696 L126.272778,17.3475696 C126.440823,17.0488237 126.660211,16.75475 126.93095,16.4653398 C127.201688,16.1759297 127.519101,15.9285344 127.883198,15.7231465 C128.247294,15.5177587 128.644061,15.3497166 129.073508,15.2190152 C129.502955,15.0883139 129.960403,15.0229642 130.445865,15.0229642 C131.379446,15.0229642 132.172978,15.1910063 132.826485,15.5270955 C133.479992,15.8631847 134.007458,16.2972934 134.408897,16.8294347 C134.810337,17.3615759 135.099743,17.9730624 135.277124,18.6639125 C135.454504,19.3547625 135.543193,20.0456022 135.543193,20.7364523 L135.543193,29.362699 L130.921989,29.362699 Z M154,29.362699 L148.314519,29.362699 L143.74933,22.6689556 L143.665308,22.6689556 L143.665308,29.362699 L139.044105,29.362699 L139.044105,8.1891843 L143.665308,8.1891843 L143.665308,21.0725398 L143.74933,21.0725398 L148.20249,15.4150663 L153.775942,15.4150663 L148.398541,21.7167076 L154,29.362699 Z" id="DeBank" fill="#FFFFFF" fill-rule="nonzero"></path>
                </g>
            </g>
        </g>
    </g>
</svg>